<?xml version="1.0" standalone="no"?>
<!DOCTYPE svg PUBLIC "-//W3C//DTD SVG 20010904//EN"
 "http://www.w3.org/TR/2001/REC-SVG-20010904/DTD/svg10.dtd">
<svg version="1.0" xmlns="http://www.w3.org/2000/svg"
 width="184.000000pt" height="41.000000pt" viewBox="0 0 184.000000 41.000000"
 preserveAspectRatio="xMidYMid meet">

<g transform="translate(0.000000,41.000000) scale(0.100000,-0.100000)"
fill="#000000" stroke="none">
<path d="M136 395 c-89 -31 -151 -135 -132 -222 6 -27 9 -28 56 -25 50 4 50 4
50 38 0 71 43 114 115 114 33 0 33 1 37 49 3 43 0 51 -17 55 -32 9 -67 6 -109
-9z"/>
<path d="M300 340 l0 -40 41 0 c29 0 38 3 33 13 -13 22 -38 49 -56 58 -16 9
-18 5 -18 -31z"/>
<path d="M514 276 c-38 -38 -43 -70 -19 -116 36 -69 144 -80 197 -21 17 19 28
43 28 61 0 29 -1 30 -51 30 -51 0 -89 -13 -89 -30 0 -6 20 -10 45 -10 51 0 57
-12 20 -36 -55 -36 -134 11 -119 70 9 37 32 46 118 46 69 0 76 2 76 20 0 18
-7 20 -86 20 -84 0 -87 -1 -120 -34z"/>
<path d="M769 279 c-40 -43 -40 -96 0 -141 28 -31 33 -33 110 -36 77 -4 81 -3
81 17 0 19 -6 21 -63 21 -60 0 -107 18 -107 41 0 5 38 9 85 9 78 0 85 2 85 20
0 18 -7 20 -85 20 -47 0 -85 4 -85 8 0 22 29 32 97 32 66 0 73 2 73 20 0 18
-7 20 -81 20 -78 0 -82 -1 -110 -31z"/>
<path d="M992 298 c-8 -8 -12 -46 -12 -105 0 -93 0 -93 25 -93 24 0 25 2 25
78 l1 77 32 -40 c18 -22 48 -58 68 -80 34 -36 39 -38 63 -27 25 11 26 14 26
107 0 95 0 95 -25 95 -24 0 -25 -2 -25 -76 l0 -77 -61 77 c-61 77 -89 92 -117
64z"/>
<path d="M1250 291 c-5 -11 -10 -58 -10 -105 0 -85 0 -86 25 -86 23 0 24 3 27
77 l3 78 64 -78 c36 -44 71 -77 82 -77 34 0 49 39 49 127 0 81 0 83 -25 83
-23 0 -24 -3 -27 -76 l-3 -77 -63 77 c-66 81 -100 97 -122 57z"/>
<path d="M1510 205 l0 -105 25 0 25 0 0 105 0 105 -25 0 -25 0 0 -105z"/>
<path d="M1621 284 c-38 -32 -49 -80 -27 -123 21 -39 63 -61 119 -61 111 0
167 115 90 186 -22 20 -36 24 -89 24 -52 0 -67 -4 -93 -26z m159 -34 c57 -57
-28 -133 -113 -101 -34 13 -52 54 -36 84 17 32 28 37 82 37 34 0 53 -6 67 -20z"/>
<path d="M285 263 c-116 -4 -135 -15 -135 -75 0 -36 2 -38 31 -38 34 0 69 15
69 30 0 6 -16 10 -36 10 -61 0 -35 25 31 28 l57 3 -6 -28 c-11 -45 -48 -75
-100 -80 -44 -5 -46 -7 -46 -38 0 -19 -2 -40 -6 -48 -8 -21 47 -29 104 -16 78
17 129 68 153 153 9 30 2 108 -10 104 -3 -1 -51 -4 -106 -5z"/>
<path d="M30 101 c0 -9 66 -71 75 -71 3 0 5 18 5 40 l0 40 -40 0 c-22 0 -40
-4 -40 -9z"/>
</g>
</svg>
